<?xml version="1.0" standalone="no"?>
<!DOCTYPE svg PUBLIC "-//W3C//DTD SVG 20010904//EN"
 "http://www.w3.org/TR/2001/REC-SVG-20010904/DTD/svg10.dtd">
<svg version="1.0" xmlns="http://www.w3.org/2000/svg"
 width="223.000000pt" height="223.000000pt" viewBox="0 0 223.000000 223.000000"
 preserveAspectRatio="xMidYMid meet">
<metadata>
Created by potrace 1.11, written by Peter Selinger 2001-2013
</metadata>
<g transform="translate(0.000000,223.000000) scale(0.100000,-0.100000)"
fill="#000000" stroke="none">
<path d="M1080 1457 c-58 -60 -116 -114 -130 -121 -17 -9 -86 -12 -228 -11
l-204 1 -25 -26 c-22 -22 -34 -25 -92 -25 l-66 0 -3 -64 -3 -64 -87 -86 c-48
-47 -86 -90 -84 -94 1 -5 -2 -6 -7 -3 -5 3 -14 -1 -21 -9 -11 -13 -5 -15 39
-15 l51 0 0 -115 c0 -132 1 -131 -95 -134 -84 -2 -100 -6 -103 -24 -3 -15 82
-17 1102 -17 1079 0 1106 0 1106 19 0 21 -19 31 -56 31 l-24 0 0 120 0 120 40
0 c29 0 40 4 40 15 0 9 -50 64 -111 123 -61 59 -143 138 -182 177 l-72 69
-218 1 -217 1 -118 115 c-64 63 -119 116 -122 119 -3 3 -52 -44 -110 -103z
m178 -124 c27 -27 90 -87 141 -134 l91 -87 3 -195 2 -195 -30 -9 c-31 -9 -119
-2 -131 10 -4 4 -8 80 -9 170 -1 89 -5 169 -8 178 -32 68 -223 65 -255 -5 -6
-13 -11 -96 -12 -187 0 -90 -2 -165 -4 -166 -6 -7 -94 -6 -127 0 l-37 7 2 194
1 194 99 93 c54 52 117 113 140 136 22 23 51 42 63 42 12 1 41 -19 71 -46z
m663 -204 c30 -28 70 -65 89 -83 l35 -32 -1 -139 c-2 -170 0 -155 -24 -155
-17 0 -20 7 -21 53 -1 28 -1 61 0 72 2 19 -5 20 -133 22 -153 1 -146 6 -146
-94 0 -45 -3 -53 -19 -53 -10 0 -21 6 -23 13 -5 16 -3 286 3 290 29 22 147
126 157 140 7 9 17 17 21 17 4 0 32 -23 62 -51z m-1297 -42 l79 -73 0 -142 c0
-93 -4 -147 -11 -154 -14 -14 -314 -13 -341 1 -17 9 -18 22 -16 118 4 190 1
178 43 217 141 134 138 133 246 33z"/>
<path d="M1139 1273 c-10 -74 0 -121 24 -106 6 4 26 6 44 5 18 -2 33 2 34 8 0
5 1 24 1 40 0 61 1 60 -52 60 -27 0 -50 -3 -51 -7z"/>
<path d="M1818 1039 c-5 -3 -10 -21 -10 -40 -1 -68 -2 -66 55 -65 l52 2 0 52
c1 29 -4 52 -10 53 -52 4 -78 3 -87 -2z"/>
<path d="M418 971 c0 -9 -2 -23 -3 -31 -1 -8 3 -23 8 -33 5 -10 5 -23 0 -30
-5 -7 -9 -30 -8 -52 l0 -40 75 -1 c41 -1 80 -3 85 -4 41 -10 43 -3 43 103 l0
104 -99 0 c-84 0 -99 -2 -101 -16z m112 -86 c0 -8 -7 -15 -15 -15 -16 0 -20
12 -8 23 11 12 23 8 23 -8z"/>
</g>
</svg>
